# xmcd
#
# Track frame offsets:
#	150
#	26556
#	56776
#	83146
#	119658
#	142839
#	162418
#	165543
#
# Disc length: 2665 seconds
#
# Revision: 1
# Processed by: cddbd v1.5.1PL2 Copyright (c) Steve Scherf et al.
# Submitted via: EasyCDDAExtractor 9.0.0.1
#
DISCID=660a6708
DTITLE=Ozzy Osbourne - Desert Sky Pavillion Phoenix 13-04-96 Disc 1 Remaster
DYEAR=1996
DGENRE=Hard Rock
TTITLE0=Flying High Again
TTITLE1=Goodbye To Romance
TTITLE2=Perry Mason
TTITLE3=No More Tears
TTITLE4=I Just Want You
TTITLE5=I Don't Want To Change The World
TTITLE6=Band Introduction
TTITLE7=Suicide Solution
EXTD=
EXTT0=
EXTT1=
EXTT2=
EXTT3=
EXTT4=
EXTT5=
EXTT6=
EXTT7=
PLAYORDER=
